<svg width="16.002441" height="18.002441" viewBox="0 0 16.0024 18.0024" fill="none" xmlns="http://www.w3.org/2000/svg" xmlns:xlink="http://www.w3.org/1999/xlink">
    <desc>
        Created with Pixso.
    </desc>
    <defs/>
    <path id="Vector" d="M10 9L10 16.87C10.04 17.18 9.94 17.5 9.71 17.7C9.61 17.8 9.5 17.87 9.38 17.92C9.26 17.97 9.13 18 9 18C8.87 18 8.74 17.97 8.62 17.92C8.5 17.87 8.39 17.8 8.3 17.7L6.29 15.7C6.18 15.59 6.09 15.46 6.04 15.31C5.99 15.17 5.98 15.02 6 14.87L6 9L5.97 9L0.21 1.62C0.04 1.41 -0.03 1.14 0 0.88C0.03 0.62 0.17 0.38 0.38 0.21C0.57 0.07 0.78 0 1 0L15 0C15.22 0 15.43 0.07 15.62 0.21C15.82 0.38 15.96 0.62 15.99 0.88C16.02 1.14 15.95 1.41 15.79 1.62L10.03 9L10 9Z" fill="#007D90" fill-opacity="1.000000" fill-rule="nonzero"/>
</svg>
