<svg width="23.641602" height="22.796997" viewBox="0 0 23.6416 22.797" fill="none" xmlns="http://www.w3.org/2000/svg" xmlns:xlink="http://www.w3.org/1999/xlink">
    <desc>
        Created with Pixso.
    </desc>
    <defs/>
    <path id="Vector" d="M21.8 22.79L13.52 14.81C12.87 15.32 12.11 15.72 11.26 16.02C10.4 16.31 9.5 16.46 8.53 16.46C6.15 16.46 4.13 15.66 2.47 14.07C0.82 12.47 0 10.53 0 8.23C-0.01 5.93 0.82 3.98 2.47 2.39C4.13 0.79 6.15 0 8.53 0C10.92 0 12.94 0.79 14.59 2.39C16.25 3.98 17.07 5.93 17.07 8.23C17.07 9.16 16.92 10.03 16.61 10.86C16.3 11.68 15.89 12.41 15.36 13.04L23.64 21.02L21.8 22.79ZM8.53 13.93C10.17 13.93 11.57 13.37 12.72 12.26C13.87 11.16 14.44 9.81 14.44 8.23C14.44 6.64 13.87 5.3 12.72 4.19C11.57 3.08 10.18 2.53 8.53 2.53C6.89 2.53 5.49 3.08 4.35 4.19C3.2 5.3 2.62 6.65 2.62 8.23C2.62 9.81 3.19 11.15 4.35 12.26C5.5 13.38 6.89 13.93 8.53 13.93Z" fill="#007D90" fill-opacity="1.000000" fill-rule="nonzero"/>
</svg>
