<svg width="35" height="40" viewBox="0 0 35 40" fill="none" xmlns="http://www.w3.org/2000/svg">
<path d="M9.16565 20.3076C9.16565 19.2406 8.43309 18.6031 7.1414 18.6031C6.61418 18.6031 6.25761 18.6551 6.07031 18.7056V22.1328C6.2923 22.1834 6.56423 22.2016 6.93745 22.2016C8.31516 22.2016 9.16565 21.4954 9.16565 20.3076ZM17.1655 18.6368C16.587 18.6368 16.2124 18.6888 15.9904 18.7407V26.3337C16.2124 26.3856 16.5689 26.3856 16.8922 26.3856C19.2397 26.4024 20.7714 25.0939 20.7714 22.3224C20.7895 19.9117 19.3937 18.6368 17.1655 18.6368Z" fill="#BFBFBF"/>
<path d="M32.4907 14.1763H31.55V9.5838L31.5417 9.49675C31.5426 9.31216 31.4781 9.13334 31.3599 8.99271L23.8082 0.265361L23.8026 0.259746C23.7065 0.154647 23.5844 0.0775554 23.4488 0.0365076L23.4072 0.0224672C23.3497 0.00737048 23.2904 -0.000179164 23.231 3.22712e-06H4.67145C3.82374 3.22712e-06 3.13558 0.697798 3.13558 1.55425V14.1763H2.1949C0.982295 14.1763 0 15.1704 0 16.3975V27.9497C0 29.1754 0.983682 30.1709 2.1949 30.1709H3.13558V38.0797C3.13558 38.9361 3.82374 39.6339 4.67145 39.6339H30.0141C30.8604 39.6339 31.55 38.9361 31.55 38.0797V30.1709H32.4907C33.7033 30.1709 34.6856 29.1754 34.6856 27.9497V16.3975C34.6856 15.1704 33.7019 14.1763 32.4907 14.1763ZM4.67145 1.55425H22.4624V9.50658C22.4624 9.93621 22.8064 10.283 23.231 10.283H30.0155V14.1763H4.67145V1.55425ZM23.5265 22.2354C23.5265 24.4565 22.7274 25.9897 21.6188 26.936C20.4118 27.9511 18.5748 28.4341 16.3286 28.4341C14.9842 28.4341 14.0324 28.347 13.3845 28.2628V16.8636C14.3376 16.7092 15.5794 16.6235 16.8905 16.6235C19.0673 16.6235 20.4797 17.0195 21.5855 17.8633C22.7773 18.7576 23.5265 20.1869 23.5265 22.2354ZM3.49769 28.3148V16.8636C4.29685 16.726 5.42066 16.6235 7.00232 16.6235C8.60202 16.6235 9.74248 16.9338 10.507 17.553C11.2381 18.1385 11.7307 19.103 11.7307 20.2389C11.7307 21.3761 11.3574 22.3393 10.6762 22.9935C9.79104 23.8374 8.48131 24.2164 6.9496 24.2164C6.60968 24.2164 6.30306 24.1996 6.06581 24.1645V28.3148H3.49769ZM30.0141 37.6585H4.67145V30.1709H30.0141V37.6585ZM32.2395 18.8615H27.8317V21.5137H31.9496V23.6492H27.8317V28.3148H25.2303V16.7092H32.2395V18.8615Z" fill="#BFBFBF"/>
</svg>
