<svg width="75" height="75" viewBox="0 0 75 75" fill="none" xmlns="http://www.w3.org/2000/svg">
<path d="M37.5 0C30.0832 0 22.833 2.19934 16.6661 6.31989C10.4993 10.4404 5.69282 16.2971 2.85453 23.1494C0.0162481 30.0016 -0.726377 37.5416 0.720569 44.8159C2.16751 52.0902 5.73904 58.772 10.9835 64.0165C16.228 69.261 22.9098 72.8325 30.1841 74.2794C37.4584 75.7264 44.9984 74.9838 51.8506 72.1455C58.7029 69.3072 64.5596 64.5007 68.6801 58.3339C72.8007 52.167 75 44.9168 75 37.5C75 32.5754 74.03 27.6991 72.1455 23.1494C70.2609 18.5997 67.4987 14.4657 64.0165 10.9835C60.5343 7.5013 56.4003 4.73907 51.8506 2.85452C47.3009 0.969966 42.4246 0 37.5 0ZM30 54.375V20.625L52.5 37.5L30 54.375Z" fill="#C5C5C5"/>
</svg>
